<mxfile host="app.diagrams.net" agent="Mozilla/5.0 (Windows NT 10.0; Win64; x64) AppleWebKit/537.36 (KHTML, like Gecko) Chrome/130.0.0.0 Safari/537.36" version="24.8.2">
  <diagram name="Page-1" id="OM22YFvplqdWJQDzijp3">
    <mxGraphModel dx="921" dy="373" grid="1" gridSize="10" guides="1" tooltips="1" connect="1" arrows="1" fold="1" page="1" pageScale="1" pageWidth="827" pageHeight="1169" math="0" shadow="0">
      <root>
        <mxCell id="0" />
        <mxCell id="1" parent="0" />
        <mxCell id="Bre29hYSYvokG4QlxWgZ-4" style="edgeStyle=orthogonalEdgeStyle;rounded=0;orthogonalLoop=1;jettySize=auto;html=1;exitX=0;exitY=0.5;exitDx=0;exitDy=0;entryX=1;entryY=0.5;entryDx=0;entryDy=0;" edge="1" parent="1" source="Bre29hYSYvokG4QlxWgZ-1" target="Bre29hYSYvokG4QlxWgZ-3">
          <mxGeometry relative="1" as="geometry" />
        </mxCell>
        <mxCell id="Bre29hYSYvokG4QlxWgZ-1" value="Back-End Server" style="rounded=0;whiteSpace=wrap;html=1;" vertex="1" parent="1">
          <mxGeometry x="380" y="390" width="120" height="60" as="geometry" />
        </mxCell>
        <mxCell id="Bre29hYSYvokG4QlxWgZ-5" style="edgeStyle=orthogonalEdgeStyle;rounded=0;orthogonalLoop=1;jettySize=auto;html=1;exitX=0;exitY=0.5;exitDx=0;exitDy=0;" edge="1" parent="1" source="Bre29hYSYvokG4QlxWgZ-2" target="Bre29hYSYvokG4QlxWgZ-1">
          <mxGeometry relative="1" as="geometry" />
        </mxCell>
        <mxCell id="Bre29hYSYvokG4QlxWgZ-2" value="AI Processing" style="rounded=0;whiteSpace=wrap;html=1;" vertex="1" parent="1">
          <mxGeometry x="562.5" y="390" width="120" height="60" as="geometry" />
        </mxCell>
        <mxCell id="Bre29hYSYvokG4QlxWgZ-3" value="Mobile Application UI" style="rounded=0;whiteSpace=wrap;html=1;" vertex="1" parent="1">
          <mxGeometry x="205" y="390" width="120" height="60" as="geometry" />
        </mxCell>
        <mxCell id="Bre29hYSYvokG4QlxWgZ-12" value="&lt;i&gt;(User records voice entry)&lt;/i&gt;" style="text;html=1;align=center;verticalAlign=middle;whiteSpace=wrap;rounded=0;" vertex="1" parent="1">
          <mxGeometry x="190" y="360" width="150" height="30" as="geometry" />
        </mxCell>
        <mxCell id="Bre29hYSYvokG4QlxWgZ-13" value="&lt;i&gt;(Processes and Stores Data)&lt;/i&gt;" style="text;html=1;align=center;verticalAlign=middle;whiteSpace=wrap;rounded=0;" vertex="1" parent="1">
          <mxGeometry x="357.5" y="360" width="165" height="30" as="geometry" />
        </mxCell>
        <mxCell id="Bre29hYSYvokG4QlxWgZ-14" value="&lt;i&gt;(Speech Emotion Recognition)&lt;/i&gt;" style="text;html=1;align=center;verticalAlign=middle;whiteSpace=wrap;rounded=0;" vertex="1" parent="1">
          <mxGeometry x="540" y="360" width="165" height="30" as="geometry" />
        </mxCell>
      </root>
    </mxGraphModel>
  </diagram>
</mxfile>
